<svg xmlns="http://www.w3.org/2000/svg" width="1em" height="1em" viewBox="0 0 16 16" fill="none">
<mask id="mask0_162_1551" style="mask-type:alpha" maskUnits="userSpaceOnUse" x="2" y="1" width="12" height="14">
<path d="M7.67703 1.64643L2.7145 7.73681C2.58963 7.89006 2.58963 8.10995 2.7145 8.2632L7.67703 14.3536C7.82239 14.532 8.08485 14.5588 8.26324 14.4134C8.28516 14.3955 8.3052 14.3755 8.32306 14.3536L13.2856 8.2632C13.4105 8.10995 13.4105 7.89006 13.2856 7.73681L8.32306 1.64643C8.1777 1.46804 7.91524 1.44126 7.73685 1.58662C7.71493 1.60447 7.69489 1.62452 7.67703 1.64643Z" fill="white"/>
</mask>
<g mask="url(#mask0_162_1551)">
<path d="M7.67703 1.64643L2.7145 7.73681C2.58963 7.89006 2.58963 8.10995 2.7145 8.2632L7.67703 14.3536C7.82239 14.532 8.08485 14.5588 8.26324 14.4134C8.28516 14.3955 8.3052 14.3755 8.32306 14.3536L13.2856 8.2632C13.4105 8.10995 13.4105 7.89006 13.2856 7.73681L8.32306 1.64643C8.1777 1.46804 7.91524 1.44126 7.73685 1.58662C7.71493 1.60447 7.69489 1.62452 7.67703 1.64643Z" stroke="#25BD65" stroke-width="1.5" stroke-linejoin="round"/>
<path d="M13.8333 1.33334H8V14.6667H13.8333V1.33334Z" fill="#25BD65" fill-opacity="0.15"/>
</g>
</svg>
